<svg xmlns="http://www.w3.org/2000/svg" viewBox="0 0 774 160"><path fill="#FFF" d="M5.876 30H0v100h100V30h-6.091z"/><path fill="#E60000" d="M5.876 35.935h88.033v88.03H5.876z"/><path fill-rule="evenodd" clip-rule="evenodd" fill="#FFF" d="M54.426 105.061c6.487 0 11.745-5.26 11.745-11.747 0-6.484-5.258-11.746-11.745-11.746-6.487 0-11.746 5.262-11.746 11.746 0 6.487 5.259 11.747 11.746 11.747zm32.577-19.209c-22.539 51.262-77.876 21.073-55.28-29.848.765-1.723.647-1.99-1.28-.534-16.147 12.218-25.008 46.311-8.975 68.547h52.679c7.546-8.249 13.022-20.713 13.817-38.008.048-1.049-.522-1.166-.961-.157z"/><path d="M229.902 77.956v52.019h-18.726v-9.711c-3.191 3.746-4.717 4.995-8.185 6.935-5.687 3.053-12.346 4.579-19.559 4.579-26.496 0-47.72-21.502-47.72-48.277 0-26.494 21.224-47.856 47.58-47.856 9.157 0 15.954 1.943 23.862 7.352l1.803 1.25v-6.799h18.866v30.244h-25.248c-5.409-6.385-10.958-9.158-18.587-9.158-14.427 0-25.248 10.681-25.248 24.968 0 14.29 11.098 25.528 25.248 25.528 8.6 0 15.952-4.303 20.391-11.931h-26.494V77.956h52.017zM266.365 60.2v10.404c5.132-7.772 10.126-10.685 19.698-11.518v21.089c-11.653.693-18.035 6.935-18.035 17.893v12.9h7.353v19.006h-35.234v-19.006h7.354V79.062h-7.354V60.2h26.218zm98.341 18.862v31.907h7.352v19.006h-27.881v-5.966c-4.579 5.409-11.098 8.045-19.283 8.045-19.283 0-35.236-16.506-35.236-36.482 0-20.529 16.37-37.592 36.067-37.592 7.907 0 13.732 2.913 18.451 8.878V60.2h27.881v18.863h-7.351zm-37.592-49.659v20.112h-20.392V29.403h20.392zm17.203 65.476c0-9.295-7.352-16.646-16.648-16.646-9.295 0-16.925 7.628-16.787 16.923 0 9.295 7.354 16.787 16.508 16.787 9.296-.001 16.927-7.632 16.927-17.064zm10.678-65.476v20.112h-20.389V29.403h20.389zM433.878 60.2v19.696h-18.723c-.553-4.022-2.773-5.966-7.075-5.966-3.746 0-6.522 2.083-6.522 4.996 0 3.189 1.946 4.576 9.298 6.659l9.012 2.636c9.158 2.636 13.874 5.966 16.786 11.931a21.886 21.886 0 0 1 1.943 9.015c0 13.041-10.404 22.192-25.384 22.192-7.629 0-12.348-1.52-17.62-5.822v4.439h-14.147v-20.392h19.839c.83 5.132 3.466 7.352 8.458 7.352 4.299 0 7.075-2.22 7.075-5.826 0-3.466-2.08-4.992-9.708-7.212-12.904-3.61-13.737-3.886-18.176-6.659-5.825-3.609-9.151-9.571-9.151-16.65 0-12.761 10.404-21.776 25.244-21.776 7.075 0 10.821 1.247 15.12 5.409V60.2h13.731zm37.472 0v10.404c5.132-7.772 10.125-10.685 19.696-11.518v21.089c-11.651.693-18.033 6.935-18.033 17.893v12.9h7.355v19.006h-35.239v-19.006h7.355V79.062h-7.355V60.2h26.221zm96.233 34.679c0 20.529-16.646 37.175-37.179 37.175-20.529 0-37.176-16.646-37.176-37.035 0-20.396 16.647-37.039 37.176-37.039 20.533 0 37.179 16.507 37.179 36.899zm-20.809 0c0-9.158-7.352-16.646-16.37-16.646-9.015 0-16.367 7.488-16.367 16.786 0 9.431 7.352 16.923 16.367 16.923 9.019 0 16.37-7.631 16.37-17.063zm53.696-15.817v31.907h10.131v19.006h-30.66V79.062h-9.571V60.2h9.571V37.448h20.529V60.2h9.711v18.863h-9.711zm63.666 30.104h21.086c-5.689 14.15-18.449 22.888-33.016 22.888-20.809 0-36.899-16.09-36.899-37.035 0-20.669 15.953-36.902 36.206-36.902 20.392 0 36.346 15.953 36.346 36.483 0 3.053-.14 4.579-.973 8.325h-51.879c3.329 6.939 9.571 11.098 17.2 11.098 4.994-.001 9.017-1.667 11.929-4.857zm4.856-21.362c-3.189-7.352-9.571-11.514-17.479-11.514-7.492 0-14.01 4.579-16.643 11.514h34.122zM721.777 60.2v9.015c4.019-6.935 10.401-10.401 18.723-10.401 9.571 0 18.036 4.439 22.336 11.791 2.359 4.019 2.913 6.795 2.913 14.287v26.078h7.352v19.006H745.22V90.717c0-7.768-3.746-11.791-10.958-11.791-9.018 0-12.484 4.576-12.484 16.093v15.95h7.352v19.006h-35.24v-19.006h7.352V79.062h-7.352V60.2h27.887z" fill="#FFF"/></svg>